<mxfile host="app.diagrams.net" agent="Mozilla/5.0 (Windows NT 10.0; Win64; x64) AppleWebKit/537.36 (KHTML, like Gecko) Chrome/140.0.0.0 Safari/537.36" version="28.2.5">
  <diagram id="week6-flow" name="Week6 Flow">
    <mxGraphModel dx="1188" dy="686" grid="1" gridSize="10" guides="1" tooltips="1" connect="1" arrows="1" fold="1" page="1" pageScale="1" pageWidth="1920" pageHeight="1080" math="0" shadow="0">
      <root>
        <mxCell id="0" />
        <mxCell id="1" parent="0" />
        <mxCell id="t1" value="Alur Aplikasi Week6 (MVC + Repository)" style="text;html=1;align=center;verticalAlign=middle;fontSize=20;fontColor=#e5e7eb;" parent="1" vertex="1">
          <mxGeometry x="260" y="20" width="900" height="40" as="geometry" />
        </mxCell>
        <mxCell id="if5VZurc5IVPzQaVl32u-1" value="" style="group" vertex="1" connectable="0" parent="1">
          <mxGeometry x="310" y="410" width="1200" height="620" as="geometry" />
        </mxCell>
        <mxCell id="lp" value="Skema GET (list/search/sort/pagination)" style="rounded=1;whiteSpace=wrap;html=1;fillColor=#111827;strokeColor=#1f2937;fontColor=#e5e7eb;" parent="if5VZurc5IVPzQaVl32u-1" vertex="1">
          <mxGeometry width="520" height="580" as="geometry" />
        </mxCell>
        <mxCell id="rp" value="Skema POST (PRG + Flash)" style="rounded=1;whiteSpace=wrap;html=1;fillColor=#111827;strokeColor=#1f2937;fontColor=#e5e7eb;" parent="if5VZurc5IVPzQaVl32u-1" vertex="1">
          <mxGeometry x="680" width="520" height="580" as="geometry" />
        </mxCell>
        <mxCell id="cb" value="Front Controller / Router&#xa;(public/index.php, ?c=…&amp;a=…)" style="rounded=1;whiteSpace=wrap;html=1;fillColor=#0b1220;strokeColor=#1f2937;fontColor=#e5e7eb;verticalAlign=middle;align=center;" parent="if5VZurc5IVPzQaVl32u-1" vertex="1">
          <mxGeometry x="540" y="40" width="120" height="520" as="geometry" />
        </mxCell>
        <mxCell id="g1" value="Browser (GET)" style="rounded=1;whiteSpace=wrap;html=1;fillColor=#0b1220;strokeColor=#1f2937;fontColor=#e5e7eb;" parent="if5VZurc5IVPzQaVl32u-1" vertex="1">
          <mxGeometry x="30" y="40" width="180" height="50" as="geometry" />
        </mxCell>
        <mxCell id="g2" value="Controller&#xa;PatientsController@index / AppointmentsController@index&#xa;• Ambil q, sort, dir, page, limit&#xa;• Panggil Repository (count/search)" style="rounded=1;whiteSpace=wrap;html=1;fillColor=#111827;strokeColor=#1f2937;fontColor=#e5e7eb;" parent="if5VZurc5IVPzQaVl32u-1" vertex="1">
          <mxGeometry x="30" y="110" width="440" height="140" as="geometry" />
        </mxCell>
        <mxCell id="g3" value="Repository (count/search)" style="rounded=1;whiteSpace=wrap;html=1;fillColor=#111827;strokeColor=#1f2937;fontColor=#e5e7eb;" parent="if5VZurc5IVPzQaVl32u-1" vertex="1">
          <mxGeometry x="30" y="270" width="220" height="70" as="geometry" />
        </mxCell>
        <mxCell id="g4" value="Database (mysqli, prepared)" style="rounded=1;whiteSpace=wrap;html=1;fillColor=#0b1220;strokeColor=#1f2937;fontColor=#e5e7eb;" parent="if5VZurc5IVPzQaVl32u-1" vertex="1">
          <mxGeometry x="30" y="360" width="220" height="60" as="geometry" />
        </mxCell>
        <mxCell id="g5" value="Paginator (page &amp; offset)" style="rounded=1;whiteSpace=wrap;html=1;fillColor=#111827;strokeColor=#1f2937;fontColor=#e5e7eb;" parent="if5VZurc5IVPzQaVl32u-1" vertex="1">
          <mxGeometry x="290" y="360" width="200" height="60" as="geometry" />
        </mxCell>
        <mxCell id="g6" value="View (tabel + pagination)" style="rounded=1;whiteSpace=wrap;html=1;fillColor=#0b1220;strokeColor=#1f2937;fontColor=#e5e7eb;" parent="if5VZurc5IVPzQaVl32u-1" vertex="1">
          <mxGeometry x="290" y="440" width="200" height="60" as="geometry" />
        </mxCell>
        <mxCell id="e1" style="edgeStyle=orthogonalEdgeStyle;endArrow=block;strokeColor=#22c55e;" parent="if5VZurc5IVPzQaVl32u-1" source="g1" target="g2" edge="1">
          <mxGeometry relative="1" as="geometry" />
        </mxCell>
        <mxCell id="e2" style="edgeStyle=orthogonalEdgeStyle;endArrow=block;strokeColor=#22c55e;" parent="if5VZurc5IVPzQaVl32u-1" source="g2" target="g3" edge="1">
          <mxGeometry relative="1" as="geometry" />
        </mxCell>
        <mxCell id="e3" style="edgeStyle=orthogonalEdgeStyle;endArrow=block;strokeColor=#22c55e;" parent="if5VZurc5IVPzQaVl32u-1" source="g3" target="g4" edge="1">
          <mxGeometry relative="1" as="geometry" />
        </mxCell>
        <mxCell id="e4" style="endArrow=block;strokeColor=#22c55e;exitX=1;exitY=0.5;exitDx=0;exitDy=0;entryX=0;entryY=0.5;entryDx=0;entryDy=0;" parent="if5VZurc5IVPzQaVl32u-1" source="g4" target="g5" edge="1">
          <mxGeometry relative="1" as="geometry">
            <mxPoint x="250" y="450" as="sourcePoint" />
            <mxPoint x="280" y="390" as="targetPoint" />
          </mxGeometry>
        </mxCell>
        <mxCell id="e5" style="edgeStyle=orthogonalEdgeStyle;endArrow=block;strokeColor=#22c55e;" parent="if5VZurc5IVPzQaVl32u-1" source="g5" target="g6" edge="1">
          <mxGeometry relative="1" as="geometry" />
        </mxCell>
        <mxCell id="p1" value="Browser (POST form)" style="rounded=1;whiteSpace=wrap;html=1;fillColor=#0b1220;strokeColor=#1f2937;fontColor=#e5e7eb;" parent="if5VZurc5IVPzQaVl32u-1" vertex="1">
          <mxGeometry x="710" y="40" width="200" height="50" as="geometry" />
        </mxCell>
        <mxCell id="p2" value="Controller (@store / @update / @destroy)" style="rounded=1;whiteSpace=wrap;html=1;fillColor=#111827;strokeColor=#1f2937;fontColor=#e5e7eb;" parent="if5VZurc5IVPzQaVl32u-1" vertex="1">
          <mxGeometry x="710" y="110" width="440" height="70" as="geometry" />
        </mxCell>
        <mxCell id="p3" value="Repository (INSERT / UPDATE / DELETE)" style="rounded=1;whiteSpace=wrap;html=1;fillColor=#111827;strokeColor=#1f2937;fontColor=#e5e7eb;" parent="if5VZurc5IVPzQaVl32u-1" vertex="1">
          <mxGeometry x="710" y="200" width="280" height="60" as="geometry" />
        </mxCell>
        <mxCell id="p4" value="Database (mysqli, prepared)" style="rounded=1;whiteSpace=wrap;html=1;fillColor=#0b1220;strokeColor=#1f2937;fontColor=#e5e7eb;" parent="if5VZurc5IVPzQaVl32u-1" vertex="1">
          <mxGeometry x="1010" y="200" width="140" height="60" as="geometry" />
        </mxCell>
        <mxCell id="p5" value="Set Flash (success/error)" style="rounded=1;whiteSpace=wrap;html=1;fillColor=#111827;strokeColor=#1f2937;fontColor=#e5e7eb;" parent="if5VZurc5IVPzQaVl32u-1" vertex="1">
          <mxGeometry x="710" y="280" width="220" height="60" as="geometry" />
        </mxCell>
        <mxCell id="p6" value="Redirect 302 (ke index/detail)" style="rounded=1;whiteSpace=wrap;html=1;fillColor=#111827;strokeColor=#1f2937;fontColor=#e5e7eb;" parent="if5VZurc5IVPzQaVl32u-1" vertex="1">
          <mxGeometry x="980" y="280" width="200" height="60" as="geometry" />
        </mxCell>
        <mxCell id="p7" value="Browser (GET ulang)" style="rounded=1;whiteSpace=wrap;html=1;fillColor=#0b1220;strokeColor=#1f2937;fontColor=#e5e7eb;" parent="if5VZurc5IVPzQaVl32u-1" vertex="1">
          <mxGeometry x="980" y="400" width="200" height="50" as="geometry" />
        </mxCell>
        <mxCell id="p8" value="Controller → View (tampilkan flash)" style="rounded=1;whiteSpace=wrap;html=1;fillColor=#0b1220;strokeColor=#1f2937;fontColor=#e5e7eb;" parent="if5VZurc5IVPzQaVl32u-1" vertex="1">
          <mxGeometry x="710" y="355" width="220" height="70" as="geometry" />
        </mxCell>
        <mxCell id="pe1" style="edgeStyle=orthogonalEdgeStyle;endArrow=block;strokeColor=#22c55e;" parent="if5VZurc5IVPzQaVl32u-1" source="p1" target="p2" edge="1">
          <mxGeometry relative="1" as="geometry" />
        </mxCell>
        <mxCell id="pe2" style="edgeStyle=orthogonalEdgeStyle;endArrow=block;strokeColor=#22c55e;" parent="if5VZurc5IVPzQaVl32u-1" source="p2" target="p3" edge="1">
          <mxGeometry relative="1" as="geometry" />
        </mxCell>
        <mxCell id="pe3" style="edgeStyle=orthogonalEdgeStyle;endArrow=block;strokeColor=#22c55e;" parent="if5VZurc5IVPzQaVl32u-1" source="p3" target="p4" edge="1">
          <mxGeometry relative="1" as="geometry" />
        </mxCell>
        <mxCell id="pe4" style="edgeStyle=orthogonalEdgeStyle;endArrow=block;strokeColor=#22c55e;" parent="if5VZurc5IVPzQaVl32u-1" source="p3" target="p5" edge="1">
          <mxGeometry relative="1" as="geometry" />
        </mxCell>
        <mxCell id="pe5" style="edgeStyle=orthogonalEdgeStyle;endArrow=block;strokeColor=#22c55e;" parent="if5VZurc5IVPzQaVl32u-1" source="p5" target="p6" edge="1">
          <mxGeometry relative="1" as="geometry" />
        </mxCell>
        <mxCell id="pe6" style="edgeStyle=orthogonalEdgeStyle;endArrow=block;strokeColor=#22c55e;" parent="if5VZurc5IVPzQaVl32u-1" source="p6" target="p7" edge="1">
          <mxGeometry relative="1" as="geometry">
            <Array as="points">
              <mxPoint x="1080" y="350" />
              <mxPoint x="1040" y="350" />
            </Array>
          </mxGeometry>
        </mxCell>
        <mxCell id="pe7" style="edgeStyle=orthogonalEdgeStyle;endArrow=block;strokeColor=#22c55e;" parent="if5VZurc5IVPzQaVl32u-1" source="p7" target="p8" edge="1">
          <mxGeometry relative="1" as="geometry" />
        </mxCell>
        <mxCell id="nt1" value="Catatan: Validasi lanjutan &amp; CSRF dibahas di Week7" style="text;html=1;align=left;verticalAlign=top;fontSize=12;fontColor=#94a3b8;" parent="if5VZurc5IVPzQaVl32u-1" vertex="1">
          <mxGeometry y="590" width="1200" height="30" as="geometry" />
        </mxCell>
      </root>
    </mxGraphModel>
  </diagram>
</mxfile>
